<svg xmlns="http://www.w3.org/2000/svg"  viewBox="0 0 64 64" width="64px" height="64px" fill-rule="evenodd" clip-rule="evenodd"><path fill="#f283a5" d="M51,7H13c-3.314,0-6,2.686-6,6v38c0,3.314,2.686,6,6,6h38c3.314,0,6-2.686,6-6V13	C57,9.686,54.314,7,51,7z"/><path fill="#f7a1c8" d="M54,50H10c-1.657,0-3,1.343-3,3v0c0,2.209,1.791,4,4,4h42c2.209,0,4-1.791,4-4v0	C57,51.343,55.657,50,54,50z"/><path fill="#8d6c9f" d="M17,48c-0.553,0-1,0.448-1,1v2c0,0.552,0.447,1,1,1s1-0.448,1-1v-2C18,48.448,17.553,48,17,48z"/><path fill="#8d6c9f" d="M12,48c-0.553,0-1,0.448-1,1v2c0,0.552,0.447,1,1,1s1-0.448,1-1v-2C13,48.448,12.553,48,12,48z"/><path fill="#8d6c9f" d="M32,48c-0.553,0-1,0.448-1,1v2c0,0.552,0.447,1,1,1s1-0.448,1-1v-2C33,48.448,32.553,48,32,48z"/><path fill="#8d6c9f" d="M37,48c-0.553,0-1,0.448-1,1v2c0,0.552,0.447,1,1,1s1-0.448,1-1v-2C38,48.448,37.553,48,37,48z"/><path fill="#8d6c9f" d="M42,48c-0.553,0-1,0.448-1,1v2c0,0.552,0.447,1,1,1s1-0.448,1-1v-2C43,48.448,42.553,48,42,48z"/><path fill="#8d6c9f" d="M47,48c-0.553,0-1,0.448-1,1v2c0,0.552,0.447,1,1,1s1-0.448,1-1v-2C48,48.448,47.553,48,47,48z"/><path fill="#8d6c9f" d="M52,48c-0.553,0-1,0.448-1,1v2c0,0.552,0.447,1,1,1s1-0.448,1-1v-2C53,48.448,52.553,48,52,48z"/><path fill="#8d6c9f" d="M22,48c-0.553,0-1,0.448-1,1v2c0,0.552,0.447,1,1,1s1-0.448,1-1v-2C23,48.448,22.553,48,22,48z"/><path fill="#8d6c9f" d="M27,48c-0.553,0-1,0.448-1,1v2c0,0.552,0.447,1,1,1s1-0.448,1-1v-2C28,48.448,27.553,48,27,48z"/><path fill="#fff8ee" fill-rule="evenodd" d="M14.877,40.576c-0.309-0.037-0.584-0.195-0.779-0.446 c-0.447-0.578-0.368-1.589-0.313-1.997c0.705-3.58,1.871-6.029,2.711-7.439c-0.06-0.04-0.115-0.086-0.167-0.139 c-0.203-0.201-0.421-0.627-0.366-1.157c0.04-0.387,0.241-0.946,0.973-1.421c0.573-0.373,1.692-0.811,2.953-0.811 c1.077,0,2.042,0.327,2.793,0.945c1.648,1.355,1.345,3.258,0.954,4.074c-1.159,2.458-3.866,2.988-4.396,3.069 c-0.27,0.042-0.484,0.056-0.654,0.056c-0.115,0-0.222-0.006-0.322-0.019c-0.37,0.937-0.815,2.021-1.348,3.281l-0.095,0.228 c-0.218,0.573-0.678,1.785-1.784,1.785C15.003,40.586,14.91,40.58,14.877,40.576z M19.822,30.663 c-0.101,0.498-0.291,1.166-0.605,2.078c0.663-0.364,1.434-0.986,1.35-1.508C20.515,30.909,20.167,30.745,19.822,30.663z" clip-rule="evenodd"/><path fill="#8d6c9f" d="M19.889,28.016c0.772,0,1.58,0.197,2.252,0.751c1.57,1.292,0.728,3.052,0.728,3.052 c-0.875,1.856-2.885,2.462-3.758,2.596c-0.217,0.033-0.389,0.046-0.525,0.046c-0.415,0-0.506-0.118-0.538-0.144 c-0.042-0.036-0.057-0.31,0.62-0.444c0.676-0.134,2.979-1.289,2.74-2.775c-0.206-1.277-1.849-1.367-2.308-1.367 c-0.075,0-0.118,0.002-0.118,0.002c0.637,0.442-2.87,8.545-2.952,8.757c-0.182,0.477-0.488,1.245-0.992,1.245 c-0.02,0-0.04-0.001-0.06-0.004c-0.539-0.065-0.35-1.487-0.35-1.487c1.133-5.747,3.52-8.45,3.52-8.45 c-0.49,0.189-0.778,0.247-0.953,0.247c-0.157,0-0.223-0.047-0.264-0.088c-0.086-0.086-0.399-0.702,0.468-1.266 C17.894,28.367,18.859,28.016,19.889,28.016 M19.889,26.316c-1.445,0-2.713,0.489-3.417,0.947 c-1.064,0.691-1.305,1.577-1.354,2.043c-0.056,0.533,0.07,1.076,0.337,1.503c-0.839,1.528-1.859,3.884-2.494,7.107 c-0.007,0.034-0.012,0.069-0.017,0.104c-0.104,0.78-0.105,1.869,0.484,2.629c0.335,0.432,0.813,0.706,1.346,0.77 c0.091,0.011,0.178,0.016,0.264,0.016c1.69,0,2.337-1.7,2.581-2.341l0.081-0.192c0.191-0.453,0.642-1.519,1.134-2.75 c0.167-0.01,0.343-0.029,0.534-0.058c1.753-0.268,3.997-1.342,5.039-3.551c0.486-1.016,0.869-3.399-1.185-5.09 C22.317,26.71,21.164,26.316,19.889,26.316L19.889,26.316z"/><path fill="#fff8ee" fill-rule="evenodd" d="M25.403,34.14c-0.399-0.004-0.778-0.188-1.064-0.517 c-0.415-0.477-0.625-1.24-0.536-1.947c0.119-0.933,0.468-1.794,2.019-3.853c0.125-0.397,0.438-0.769,0.946-0.83 c0.034-0.004,0.15-0.012,0.185-0.012c0.502,0,1.121,0.262,1.213,1.509c0.084,1.137-0.552,2.45-0.939,3.132 c-0.18,0.316-0.468,0.979-0.578,1.271c0.017,0.244-0.032,0.52-0.202,0.761c-0.128,0.182-0.431,0.485-1.021,0.485 C25.422,34.14,25.407,34.14,25.403,34.14z" clip-rule="evenodd"/><path fill="#8d6c9f" d="M26.952,27.831c0.19,0,0.321,0.118,0.366,0.723c0.051,0.688-0.284,1.687-0.831,2.649 c-0.253,0.445-0.715,1.529-0.708,1.639c0,0,0.16,0.448-0.353,0.448c-0.004,0-0.008,0-0.012,0c-0.527-0.006-0.852-0.846-0.768-1.509 c0.085-0.663,0.28-1.376,1.964-3.593c0,0,0.025-0.324,0.259-0.352C26.898,27.833,26.925,27.831,26.952,27.831 M26.952,26.131 c-0.094,0-0.192,0.006-0.294,0.019c-0.735,0.09-1.334,0.585-1.6,1.274c-1.593,2.131-1.962,3.082-2.098,4.142 c-0.121,0.952,0.162,1.953,0.737,2.614c0.448,0.514,1.05,0.802,1.696,0.81c0,0,0,0,0.001,0c0.743,0,1.368-0.308,1.748-0.846 c0.228-0.323,0.351-0.707,0.361-1.101c0.123-0.302,0.341-0.786,0.462-1.001c0.434-0.765,1.148-2.252,1.047-3.613 C28.854,26.297,27.395,26.131,26.952,26.131L26.952,26.131z"/><path fill="#fff8ee" fill-rule="evenodd" d="M28.704,34.329c-0.422,0-0.795-0.16-1.052-0.45	c-0.295-0.335-0.685-1.063,0.013-2.175c0.095-0.152,0.341-0.545,2.151-2.108c-0.383-0.085-0.977-0.298-1.261-0.818	c-0.196-0.359-0.2-0.776-0.011-1.173c0.169-0.347,0.58-0.741,1.192-0.741l0.228,0.013c0.132,0.01,0.28,0.021,0.449,0.021	c0.159,0,0.337-0.01,0.54-0.042c0.535-0.087,1.817-0.131,2.384-0.131c0.174,0,0.301,0.006,0.359,0.013	c0.4,0.046,0.768,0.274,0.986,0.61c0.227,0.35,0.277,0.782,0.14,1.22c-0.176,0.569-1.031,1.561-1.525,2.101l-0.311,0.295	c0.239,0.021,0.474,0.052,0.704,0.091c1.379,0.236,2.003,0.286,2.284,0.286c0.053,0,0.098-0.001,0.134-0.006	c0.322-0.039,0.813-0.148,0.918-0.187c0.136-0.06,0.299-0.094,0.463-0.094c0.393,0,0.747,0.195,0.946,0.521	c0.143,0.23,0.188,0.509,0.124,0.779c-0.051,0.218-0.2,0.531-0.617,0.787c-0.329,0.203-1.268,0.783-2.929,0.783l-0.265-0.005	c-1.104-0.04-1.891-0.046-2.269-0.046l-0.379,0.001c-0.776,0-1.796,0.055-2.391,0.209C29.523,34.171,29.126,34.329,28.704,34.329z" clip-rule="evenodd"/><path fill="#fff8ee" fill-rule="evenodd" d="M35.962,31.316c-0.372,0-0.72-0.18-0.93-0.479 c-0.17-0.243-0.324-0.669-0.089-1.316c0.31-0.854,1.1-1.438,1.188-1.502l0.539-0.44c-0.134-0.019-0.244-0.048-0.343-0.09 c-0.356-0.15-0.775-0.514-0.907-0.982c-0.139-0.334-0.166-0.984,0.313-1.436c0.17-0.162,0.505-0.358,0.876-0.365 c0,0,0.001,0,0.002,0c0.187,0,0.314,0.032,0.398,0.054c0.001,0,0.002,0,0.002,0c0.175,0,1.461-0.173,2.587-0.336h0 c0,0,0.154-0.025,0.379-0.025c0.468,0,1.127,0.106,1.61,0.612c0.64,0.67,0.313,1.63-0.295,2.284 c-0.448,0.459-0.814,0.833-1.115,1.139c0.134,0.013,0.259,0.022,0.354,0.022l0.455-0.062c0.022-0.01,0.161-0.044,0.322-0.044 c0.467,0,0.861,0.282,1.002,0.718c0.105,0.326,0.19,1.148-1.265,1.786c-0.749,0.328-1.7,0.363-2.075,0.363 c-0.104,0-0.197-0.003-0.272-0.007c-0.295-0.016-0.995-0.048-1.479-0.048c-0.123,0-0.229,0.002-0.305,0.008 c-0.257,0.02-0.525,0.078-0.663,0.106c-0.104,0.022-0.177,0.033-0.202,0.036C36.023,31.314,35.988,31.316,35.962,31.316z" clip-rule="evenodd"/><path fill="#8d6c9f" d="M39.978,25.248c0.276,0,0.713,0.053,0.996,0.349c0.373,0.39-0.303,1.119-0.303,1.119 s-2.267,2.319-2.346,2.35c0,0,0.642,0.065,0.819,0.087c0.155,0.019,0.953,0.152,1.389,0.152c0.065,0,0.122-0.003,0.168-0.01 c0.351-0.052,0.434-0.06,0.477-0.073c0.019-0.006,0.072-0.022,0.131-0.022c0.075,0,0.16,0.026,0.194,0.13 c0.06,0.187-0.165,0.468-0.798,0.746c-0.532,0.233-1.275,0.292-1.732,0.292c-0.087,0-0.164-0.002-0.227-0.006 c-0.304-0.017-1.025-0.049-1.524-0.049c-0.149,0-0.278,0.003-0.37,0.01c-0.403,0.031-0.828,0.139-0.88,0.143 c-0.002,0-0.006,0-0.009,0c-0.079,0-0.439-0.052-0.22-0.655c0.229-0.632,0.884-1.101,0.884-1.101l2.61-2.133 c0,0-1.373,0.174-2.133,0.174c-0.206,0-0.367-0.013-0.443-0.045c-0.171-0.072-0.372-0.255-0.422-0.431c0,0-0.149-0.372,0.078-0.586 c0.067-0.063,0.204-0.133,0.309-0.135c0.002,0,0.004,0,0.006,0c0.102,0,0.175,0.039,0.331,0.064 c0.004,0.001,0.011,0.001,0.02,0.001c0.28,0,2.739-0.356,2.739-0.356S39.825,25.248,39.978,25.248 M39.978,23.548 c-0.258,0-0.45,0.026-0.521,0.037c-0.874,0.126-1.93,0.271-2.368,0.32c-0.121-0.026-0.274-0.05-0.458-0.05 c-0.556,0.009-1.098,0.234-1.485,0.601c-0.754,0.713-0.755,1.703-0.518,2.37c0.116,0.353,0.317,0.649,0.55,0.886 c-0.348,0.332-0.794,0.854-1.036,1.52c-0.379,1.043-0.042,1.76,0.192,2.094c0.369,0.527,0.977,0.841,1.626,0.841 c0.045,0,0.099-0.002,0.143-0.006c0.053-0.005,0.164-0.018,0.324-0.052c0.127-0.027,0.364-0.077,0.551-0.091 c0.06-0.005,0.144-0.005,0.242-0.005c0.433,0,1.107,0.028,1.43,0.046c0.09,0.005,0.198,0.008,0.321,0.008 c0.531,0,1.552-0.056,2.415-0.435c2.205-0.966,1.83-2.523,1.733-2.825c-0.173-0.531-0.547-0.935-1.026-1.146 c0.873-1.103,0.919-2.39,0.109-3.239C41.665,23.859,40.874,23.548,39.978,23.548L39.978,23.548z"/><path fill="#fff8ee" fill-rule="evenodd" d="M21.491,45.472c-0.382-0.047-1.273-0.329-1.3-1.948 c-0.006-0.386,0.151-1.13,0.318-1.779c-0.631-0.188-0.805-0.437-0.884-0.551c-0.145-0.154-0.337-0.585-0.258-1.096 c0.092-0.629,0.646-0.991,1.153-1.069c0.292-0.056,0.703-0.115,1.021-0.158c1.961-4.353,2.811-4.38,3.225-4.393 c0,0,0.001,0,0.002,0c0.378,0,0.686,0.163,0.88,0.447c0.16,0.235,0.502,0.737-0.303,3.18l0.318-0.067 c0.205-0.654,0.586-1.778,0.981-2.44c0.502-0.844,0.888-1.3,1.491-1.3c0.386,0,0.723,0.146,0.948,0.411 c0.222,0.262,0.31,0.612,0.248,0.987c-0.033,0.2-0.152,0.902-0.263,1.548c0.226,0.074,0.42,0.228,0.55,0.439 c0.286,0.466,0.138,1.057-0.359,1.438l-0.664,0.435c-0.397,1.693-0.701,2.706-0.905,3.013c-0.395,0.602-0.927,0.935-1.496,0.935 c-0.773-0.05-1.48-0.646-1.433-1.847c0.003-0.094,0.011-0.189,0.021-0.287c-0.235,0.086-0.423,0.151-0.574,0.202 c-0.313,1.231-0.683,2.579-0.877,2.92c-0.34,0.594-1.005,0.993-1.656,0.993C21.643,45.483,21.525,45.476,21.491,45.472z" clip-rule="evenodd"/><path fill="#8d6c9f" d="M28.135,35.147c0.085,0,0.423,0.013,0.357,0.41c-0.064,0.396-0.468,2.744-0.468,2.744l0.634-0.242 c0,0,0.038-0.018,0.087-0.018c0.048,0,0.107,0.017,0.149,0.086c0.085,0.138-0.151,0.318-0.151,0.318l-0.897,0.585 c0,0-0.621,2.704-0.862,3.068c-0.23,0.349-0.514,0.554-0.788,0.554c-0.012,0-0.025,0-0.037-0.001 c-0.286-0.02-0.573-0.306-0.547-0.963c0.027-0.656,0.292-1.593,0.306-1.671c0,0-2.094,0.838-2.412,0.871 c0,0-0.702,2.815-0.91,3.179c-0.192,0.336-0.583,0.565-0.918,0.565c-0.028,0-0.056-0.002-0.083-0.005 c-0.481-0.059-0.546-0.722-0.553-1.118c-0.006-0.397,0.3-1.685,0.539-2.426c0,0-1.076-0.116-1.259-0.376 c0,0-0.161-0.182-0.115-0.479c0.044-0.298,0.443-0.36,0.443-0.36c0.551-0.103,1.475-0.218,1.475-0.218s1.886-4.298,2.668-4.323 c0.003,0,0.005,0,0.008,0c0.765,0-0.778,3.925-0.778,3.925l2.309-0.488c0,0,0.535-1.882,1.042-2.733 C27.881,35.179,28.051,35.147,28.135,35.147 M28.135,33.447c-0.828,0-1.377,0.491-1.771,1.019 c-0.004-0.007-0.009-0.013-0.013-0.019c-0.35-0.513-0.929-0.82-1.55-0.82c-0.018,0-0.043,0-0.061,0.001 c-0.737,0.024-1.731,0.056-3.778,4.466c-0.21,0.031-0.424,0.066-0.607,0.1c-0.805,0.138-1.675,0.738-1.83,1.785 c-0.13,0.845,0.219,1.458,0.428,1.737c0.124,0.171,0.294,0.354,0.566,0.522c-0.104,0.484-0.183,0.966-0.178,1.298 c0.038,2.352,1.576,2.722,2.047,2.78c0.095,0.012,0.191,0.017,0.289,0.017c0.961,0,1.9-0.557,2.394-1.42 c0.069-0.122,0.188-0.328,0.475-1.314c0.401,0.455,0.946,0.711,1.496,0.749c0.039,0.003,0.115,0.005,0.154,0.005 c0.85,0,1.654-0.48,2.207-1.317c0.131-0.199,0.368-0.556,0.942-2.953l0.326-0.213c0.035-0.023,0.07-0.047,0.104-0.073 c0.843-0.644,1.082-1.72,0.569-2.557c-0.095-0.156-0.211-0.295-0.341-0.414c0.077-0.452,0.145-0.852,0.168-0.996 c0.103-0.619-0.053-1.214-0.438-1.67C29.343,33.7,28.776,33.447,28.135,33.447L28.135,33.447z"/><path fill="#fff8ee" fill-rule="evenodd" d="M44.215,30.351c-0.182,0-0.363-0.019-0.538-0.055 c-0.795-0.167-1.572-0.86-1.37-2.307c0.188-1.345,2.564-3.569,4.917-3.569c0.141,0,0.282,0.008,0.42,0.023 c0.138-0.055,0.302-0.097,0.48-0.097c0.026,0,0.075,0.002,0.101,0.004c0.339,0.029,0.667,0.224,0.874,0.518 c0.139,0.198,0.345,0.627,0.172,1.268c-0.043,0.162-0.102,0.344-0.161,0.527c-0.026,0.081-0.061,0.186-0.091,0.287 c0.554,0.077,1.047,0.248,1.19,0.777c0.14,0.513-0.033,1.025-0.443,1.304c-0.188,0.127-1.116,0.591-1.833,0.591l0,0 c-0.369-0.014-0.762-0.099-1.097-0.258c-0.336,0.234-0.758,0.505-1.075,0.625C45.319,30.158,44.812,30.351,44.215,30.351z" clip-rule="evenodd"/><path fill="#8d6c9f" d="M48.125,25.196c0.008,0,0.016,0,0.023,0.001c0.158,0.014,0.442,0.202,0.303,0.717 c-0.139,0.514-0.443,1.245-0.356,1.481c0.086,0.236,0.269,0.342,0.48,0.361c0.212,0.019,0.785,0.086,0.813,0.192 c0.029,0.106,0.033,0.289-0.101,0.38c-0.131,0.089-0.893,0.443-1.354,0.443c-0.012,0-0.024,0-0.036-0.001 c-0.457-0.019-0.957-0.24-1.049-0.471c0,0-0.924,0.717-1.391,0.895c-0.37,0.141-0.789,0.306-1.244,0.306 c-0.119,0-0.24-0.011-0.363-0.037c-0.597-0.125-0.804-0.636-0.702-1.357c0.126-0.903,2.122-2.838,4.074-2.838 c0.189,0,0.377,0.018,0.563,0.057C47.786,25.327,47.969,25.196,48.125,25.196 M44.854,28.027c0.145,0,0.433-0.014,0.677-0.112 c0.342-0.137,1.081-0.561,1.081-0.561s0.018-0.191,0.064-0.314C46.722,26.917,47,26.288,47,26.288s-1.81,0.287-2.239,1.737 C44.761,28.025,44.796,28.027,44.854,28.027 M48.125,23.496c-0.211,0-0.407,0.034-0.583,0.085 c-0.105-0.007-0.212-0.011-0.318-0.011c-2.656,0-5.495,2.424-5.758,4.302c-0.267,1.897,0.83,3.003,2.036,3.256 c0.232,0.049,0.472,0.073,0.713,0.073c0.754,0,1.367-0.234,1.815-0.405c0.288-0.11,0.609-0.29,0.91-0.48 c0.296,0.091,0.6,0.141,0.889,0.153c0.023,0.001,0.082,0.002,0.106,0.002c0.934,0,2.019-0.54,2.309-0.737 c0.703-0.476,1.02-1.373,0.787-2.231c-0.159-0.586-0.529-0.926-0.943-1.128c0.002-0.006,0.003-0.012,0.005-0.018 c0.195-0.721,0.091-1.422-0.294-1.974c-0.352-0.506-0.898-0.827-1.498-0.881C48.25,23.5,48.176,23.496,48.125,23.496L48.125,23.496 z"/><path fill="#fff8ee" fill-rule="evenodd" d="M26.863,26.757c-0.277,0-0.55-0.074-0.789-0.215 c-0.728-0.431-0.716-1.424-0.48-1.961c0.134-0.305,0.54-1.077,1.392-1.605c0.618-0.382,1.134-0.567,1.316-0.627 c0.116-0.049,0.309-0.111,0.524-0.111c0.282,0,0.541,0.106,0.728,0.299c0.168,0.174,0.51,0.654,0.099,1.406 c-0.043,0.078-1.229,1.959-1.747,2.417C27.617,26.616,27.247,26.757,26.863,26.757z" clip-rule="evenodd"/><path fill="#8d6c9f" d="M28.826,23.087c0.045,0,0.089,0.011,0.119,0.042c0.101,0.104,0.041,0.262-0.037,0.405 c-0.078,0.143-1.188,1.856-1.565,2.189c-0.136,0.121-0.308,0.183-0.48,0.183c-0.123,0-0.246-0.032-0.356-0.097 c-0.264-0.156-0.23-0.668-0.134-0.884c0.095-0.216,0.412-0.823,1.062-1.227c0.65-0.403,1.169-0.553,1.169-0.553 S28.721,23.087,28.826,23.087 M28.826,21.387C28.826,21.387,28.826,21.387,28.826,21.387c-0.332,0-0.62,0.085-0.819,0.164 c-0.253,0.084-0.812,0.295-1.469,0.702c-1.054,0.654-1.556,1.608-1.723,1.988c-0.437,0.992-0.247,2.399,0.827,3.032 c0.369,0.218,0.791,0.333,1.22,0.333c0.592,0,1.163-0.217,1.607-0.61c0.673-0.596,1.923-2.635,1.933-2.653 c0.554-1.013,0.241-1.904-0.238-2.398C29.818,21.586,29.341,21.387,28.826,21.387L28.826,21.387z"/><g><path fill="#fff8ee" fill-rule="evenodd" d="M15.169,24.773c-0.539,0-0.988-0.23-1.233-0.632 c-0.402-0.657-0.116-1.389,0.319-1.791c0.167-0.153,1.416-1.1,2.145-1.65l2.054-1.436c1.578-0.958,1.738-1.043,1.917-1.139 c0.012-0.006,0.086-0.046,0.099-0.052l2.16-1.021c0.258-0.5,0.812-1.573,0.89-1.746c0.059-0.14,0.384-0.719,0.962-1.715 c0.043-0.074,0.097-0.141,0.16-0.199c0.061-0.056,0.227-0.195,0.466-0.289c0.096-0.038,0.989-0.321,2.655-0.842l3.64-1.055 l1.595-0.428c0.018-0.005,0.081-0.018,0.099-0.021c0.054-0.011,0.108-0.016,0.163-0.016c0.001,0,0.002,0,0.002,0 c0.203,0,0.407,0.064,0.576,0.183c0.159,0.115,1.156,1.133,1.825,2.419c0.138,0.266,0.34,0.704,0.475,1.001 c1.262,0.509,5.36,2.196,6.596,3.166l0.426,0.292c0.351,0.257,0.624,0.759,0.486,1.335c-0.111,0.461-0.451,0.808-1.01,1.032 c-0.139,0.048-1.46,0.452-4.122,0.532c-1.015,0.031-4.138,0.349-4.17,0.352c-4.162,0.509-8.03,1.026-13.064,2.194l-3.886,0.984 l-1.934,0.51c-0.04,0.01-0.08,0.018-0.12,0.022C15.308,24.769,15.201,24.773,15.169,24.773z" clip-rule="evenodd"/><path fill="#8d6c9f" d="M33.261,11.592c0.007,0,0.046,0.001,0.085,0.029c0.043,0.031,0.954,0.95,1.56,2.116 c0.216,0.416,0.594,1.27,0.594,1.27s5.38,2.132,6.706,3.173l0.468,0.323c0,0,0.209,0.154,0.142,0.437 c-0.068,0.283-0.416,0.406-0.52,0.45c0,0-1.234,0.385-3.81,0.463c-1.057,0.032-4.23,0.356-4.23,0.356 c-4.23,0.516-8.134,1.042-13.171,2.211l-3.902,0.988l-1.942,0.512c0,0-0.029,0.003-0.074,0.003c-0.128,0-0.386-0.026-0.507-0.225 c-0.165-0.269,0.011-0.576,0.171-0.723c0.16-0.147,2.08-1.596,2.08-1.596l2.029-1.418c1.668-1.011,1.674-1.001,1.892-1.118 l2.419-1.145c0,0,0.976-1.886,1.047-2.055c0.072-0.169,0.917-1.626,0.917-1.626s0.085-0.078,0.201-0.123 c0.117-0.046,2.597-0.821,2.597-0.821l3.624-1.049l1.578-0.423l0.044-0.009C33.26,11.592,33.261,11.592,33.261,11.592 M33.261,9.892c-0.015,0-0.031,0-0.046,0.001c-0.101,0.003-0.202,0.014-0.3,0.035c-0.032,0.007-0.108,0.023-0.139,0.032 l-1.578,0.423l-3.656,1.058c-2.572,0.804-2.68,0.846-2.744,0.871c-0.359,0.14-0.614,0.346-0.734,0.457 c-0.125,0.115-0.232,0.249-0.318,0.396c-0.898,1.547-0.972,1.721-1.011,1.814c-0.048,0.103-0.376,0.744-0.729,1.429l-1.899,0.899 c-0.026,0.012-0.052,0.026-0.078,0.039l-0.051,0.027c-0.213,0.113-0.367,0.195-1.917,1.135c-0.032,0.019-0.062,0.039-0.093,0.06 l-2.029,1.418c-0.017,0.012-0.034,0.024-0.05,0.036c-1.986,1.499-2.146,1.646-2.206,1.701c-0.837,0.768-1.031,1.945-0.471,2.861 c0.397,0.65,1.129,1.039,1.958,1.039c0.165,0,0.27-0.015,0.27-0.015c0.067-0.009,0.173-0.028,0.238-0.045l1.942-0.512l3.886-0.984 c4.966-1.152,8.808-1.665,12.959-2.172c0.833-0.085,3.259-0.319,4.076-0.344c2.73-0.082,4.116-0.493,4.265-0.54 c0.049-0.015,0.098-0.033,0.145-0.053c1.036-0.419,1.399-1.112,1.521-1.621c0.244-1.022-0.272-1.826-0.788-2.205 c-0.013-0.01-0.027-0.02-0.041-0.029l-0.432-0.298c-1.277-0.969-4.836-2.469-6.441-3.122c-0.117-0.253-0.248-0.53-0.354-0.732 c-0.662-1.272-1.726-2.463-2.087-2.719C34.021,10.014,33.64,9.892,33.261,9.892L33.261,9.892z"/></g><path fill="#fff8ee" fill-rule="evenodd" d="M31.322,40.971c-0.542,0-0.935-0.245-1.183-0.429	c-0.936-0.691-0.544-2.16-0.456-2.447c0.004-0.014,0.204-0.616,0.32-0.969c-0.304-0.196-0.426-0.475-0.466-0.68	c-0.06-0.306,0.032-0.623,0.25-0.87c0.376-0.427,1.091-0.46,1.301-0.46c0.155,0,0.319,0.014,0.482,0.046	c0.812,0.159,1.34,0.939,1.454,1.634c0.284-0.229,0.488-0.419,0.552-0.526c0.538-1.11,0.822-1.337,0.915-1.411	c0.105-0.08,0.425-0.298,0.842-0.298c0.513,0,0.938,0.313,1.134,0.838c0.031,0.083,0.049,0.17,0.053,0.258	c0.002,0.052,0.02,0.532-0.142,1.429c-0.108,0.596-0.134,1.7-0.128,2.103c0.266,0.628-0.049,1.183-0.491,1.443	c-0.058,0.034-0.12,0.062-0.185,0.081c-0.08,0.024-0.237,0.045-0.321,0.045c-0.234,0-0.592-0.064-0.974-0.373	c-0.122-0.098-0.353-0.283-0.573-0.572c-0.326,0.323-0.699,0.627-1.074,0.797C32.152,40.825,31.745,40.971,31.322,40.971z" clip-rule="evenodd"/><path fill="#8d6c9f" d="M39.157,31.124c-0.348-0.573-0.973-0.921-1.666-0.921c-0.257,0-0.51,0.048-0.753,0.144	c-0.137,0.039-0.513,0.117-0.73,0.143c-0.179,0-0.54-0.021-1.317-0.136c0.762-0.948,0.894-1.373,0.945-1.537	c0.213-0.681,0.127-1.37-0.242-1.935c-0.355-0.545-0.953-0.915-1.599-0.989c-0.073-0.008-0.236-0.018-0.46-0.018	c-0.438,0-1.848,0.033-2.516,0.14c-0.137,0.022-0.266,0.032-0.406,0.032c-0.148,0-0.277-0.011-0.392-0.019l-0.138-0.01	c-0.037-0.002-0.109-0.005-0.146-0.005c-1.005,0-1.68,0.652-1.952,1.21c-0.312,0.654-0.301,1.364,0.024,1.96	c0.135,0.249,0.308,0.451,0.498,0.615c-1.059,0.969-1.256,1.284-1.363,1.455c-1.056,1.684-0.214,2.865,0.07,3.187	c0.42,0.477,1.02,0.739,1.69,0.739c0.119,0,0.235-0.011,0.348-0.025c-0.315,0.427-0.448,0.945-0.349,1.456	c0.037,0.189,0.124,0.466,0.329,0.745c-0.081,0.243-0.15,0.453-0.15,0.454c-0.352,1.146-0.33,2.616,0.752,3.417	c0.539,0.4,1.092,0.594,1.688,0.594c0.608,0,1.158-0.21,1.661-0.437c0.232-0.105,0.46-0.246,0.677-0.408	c0.028,0.024,0.057,0.048,0.087,0.072c0.574,0.462,1.136,0.56,1.506,0.56c0.197,0,0.395-0.029,0.572-0.082	c0.127-0.039,0.249-0.092,0.363-0.159c0.834-0.489,1.18-1.424,0.912-2.313c0.001-0.449,0.034-1.365,0.116-1.815	c0.171-0.944,0.161-1.479,0.155-1.621c-0.008-0.176-0.044-0.349-0.106-0.514c-0.082-0.22-0.193-0.416-0.326-0.59	c0.742-0.215,1.219-0.503,1.432-0.634c0.437-0.27,0.737-0.604,0.91-1.005C39.527,32.302,39.481,31.648,39.157,31.124z M35.542,36.933c-0.149,0.825-0.157,2.425-0.131,2.477c0.026,0.052,0.215,0.312-0.084,0.487c0,0-0.027,0.008-0.075,0.008	c-0.088,0-0.246-0.027-0.439-0.183c-0.299-0.241-0.819-0.696-0.794-1.606c0,0-0.943,1.359-1.736,1.716	c-0.414,0.187-0.706,0.287-0.962,0.287c-0.234,0-0.437-0.084-0.676-0.261c-0.501-0.371-0.15-1.515-0.15-1.515s0.394-1.187,0.4-1.216	c0.007-0.029,0.059-0.195,0.012-0.293c0,0-0.107-0.245-0.329-0.356c-0.223-0.112-0.256-0.226-0.155-0.34	c0.076-0.086,0.346-0.174,0.664-0.174c0.103,0,0.211,0.009,0.319,0.031c0.443,0.086,0.748,0.624,0.786,0.992	c0.038,0.367-0.007,0.972-0.257,1.61c0,0,1.974-1.229,2.37-1.893c0,0,0.488-1.001,0.715-1.183c0,0,0.148-0.112,0.311-0.112	c0.123,0,0.255,0.064,0.339,0.287C35.671,35.698,35.691,36.107,35.542,36.933z M37.498,32.417c-0.236,0.145-1.022,0.656-2.484,0.656	c-0.076,0-0.154-0.001-0.234-0.004c-1.122-0.04-1.92-0.047-2.302-0.047c-0.167,0-0.254,0.001-0.254,0.001s-0.043-0.001-0.12-0.001	c-0.421,0-1.854,0.019-2.696,0.261c0,0-0.365,0.195-0.705,0.195c-0.156,0-0.307-0.041-0.414-0.163	c-0.338-0.384-0.08-0.881,0.096-1.161c0.251-0.401,1.545-1.593,3.967-3.574c0,0-1.105,0.229-1.893,0.229	c-0.105,0-0.204-0.004-0.295-0.013c0,0-1.175-0.152-0.853-0.828c0,0,0.125-0.256,0.425-0.256c0.012,0,0.023,0,0.035,0.001	c0.182,0.012,0.391,0.032,0.641,0.032c0.198,0,0.421-0.013,0.675-0.054c0.466-0.075,1.684-0.119,2.247-0.119	c0.13,0,0.225,0.002,0.268,0.007c0.228,0.026,0.557,0.256,0.409,0.732c-0.147,0.475-1.341,1.78-1.341,1.78l-1.894,1.795	c0,0,0.56-0.113,1.377-0.113c0.412,0,0.89,0.029,1.394,0.115c1.237,0.212,1.999,0.298,2.43,0.298c0.093,0,0.171-0.004,0.235-0.012	c0.358-0.043,0.971-0.173,1.133-0.243c0.051-0.022,0.1-0.032,0.145-0.032c0.099,0,0.179,0.047,0.22,0.114	C37.771,32.115,37.745,32.265,37.498,32.417z"/><g><path fill="#fff8ee" fill-rule="evenodd" d="M38.656,41.317c-0.705-0.033-1.036-0.712-1.086-1.161 c-0.016-0.149-0.085-1.38,0.068-2.258c0.066-0.38,0.207-0.864,0.343-1.289c-0.67-0.198-1.054-0.595-1.089-1.152 c-0.024-0.379,0.099-0.735,0.348-1c0.263-0.28,0.648-0.441,1.059-0.441c0.152,0,0.3,0.023,0.438,0.066 c0.078-0.011,0.253-0.042,0.419-0.071c0.771-1.239,1.033-1.579,1.143-1.699c0.187-0.216,0.513-0.427,0.925-0.427 c0.254,0,0.509,0.082,0.736,0.237c0.442,0.299,0.583,0.781,0.542,1.239l1.662-0.31c0.051-0.009,0.169-0.021,0.222-0.021 c0.486,0,0.886,0.311,0.993,0.773c0.045,0.186,0.125,0.844-0.787,1.248c-1.184,0.476-2.565,1.02-3.32,1.282l-0.763,2.059 l-0.732,2.174c-0.011,0.032-0.024,0.063-0.038,0.094c-0.145,0.304-0.501,0.659-1.028,0.659 C38.696,41.319,38.669,41.318,38.656,41.317z" clip-rule="evenodd"/><path fill="#8d6c9f" d="M41.223,32.735c0.074,0,0.16,0.023,0.257,0.089c0.337,0.229,0.096,0.764,0.096,0.764l-0.443,0.893 l3.186-0.594c0,0,0.029-0.007,0.066-0.007c0.06,0,0.143,0.018,0.166,0.115c0.031,0.13-0.304,0.279-0.304,0.279 s-3.283,1.316-3.63,1.378l-0.906,2.445l-0.741,2.198c0,0-0.083,0.174-0.261,0.174c-0.004,0-0.008,0-0.013,0 c-0.186-0.009-0.273-0.329-0.282-0.407c-0.008-0.078-0.076-1.236,0.061-2.016c0.136-0.78,0.644-2.126,0.644-2.126l0.002-0.016 c0,0-0.001,0-0.002,0c-0.061,0-1.348-0.006-1.38-0.5c-0.025-0.38,0.29-0.537,0.559-0.537c0.09,0,0.174,0.017,0.239,0.05 c0,0,0.089,0.019,0.196,0.019c0.031,0,0.064-0.002,0.096-0.006c0.143-0.02,0.85-0.15,0.85-0.15s1.058-1.719,1.253-1.901 C40.932,32.879,41.039,32.735,41.223,32.735 M41.223,31.035c-0.592,0-1.159,0.258-1.547,0.697 c-0.138,0.149-0.386,0.471-1.012,1.463c-0.12-0.019-0.242-0.029-0.365-0.029c-0.645,0-1.257,0.259-1.68,0.709 c-0.411,0.438-0.615,1.02-0.576,1.637c0.02,0.306,0.15,1.047,0.914,1.559c-0.064,0.237-0.119,0.471-0.156,0.681 c-0.174,0.99-0.095,2.323-0.077,2.49c0.101,0.92,0.784,1.872,1.893,1.924c0.026,0.001,0.066,0.002,0.092,0.002 c0.76,0,1.465-0.449,1.796-1.144c0.029-0.061,0.054-0.123,0.076-0.187l0.733-2.174l0.616-1.663c0.57-0.209,1.477-0.558,2.949-1.149 c0.02-0.008,0.039-0.016,0.058-0.025c1.2-0.534,1.432-1.534,1.266-2.228c-0.195-0.832-0.944-1.419-1.819-1.419 c-0.157,0-0.294,0.019-0.397,0.039l-0.787,0.147c-0.153-0.378-0.411-0.709-0.766-0.949C42.068,31.167,41.648,31.035,41.223,31.035 L41.223,31.035z"/></g><path fill="#8d6c9f" d="M51,6H13c-3.859,0-7,3.14-7,7v38c0,3.86,3.141,7,7,7h38c3.859,0,7-3.14,7-7V13C58,9.14,54.859,6,51,6	z M56,51c0,2.757-2.243,5-5,5H13c-2.757,0-5-2.243-5-5V13c0-2.757,2.243-5,5-5h38c2.757,0,5,2.243,5,5V51z"/></svg>