<svg xmlns="http://www.w3.org/2000/svg" xmlns:xlink="http://www.w3.org/1999/xlink" version="1.1" x="0px" y="0px" viewBox="0 0 100 125" enable-background="new 0 0 100 100" xml:space="preserve"><g><path d="M59,24v-2c0-0.552,0.448-1,1-1h10c0.552,0,1,0.448,1,1v2c0,0.552-0.448,1-1,1H60C59.448,25,59,24.552,59,24z M60,29l10,10   V26H60V29z M22.729,55.729l0.564,0.564c0.391,0.391,1.024,0.391,1.414,0L50,31l25.293,25.293c0.391,0.391,1.023,0.391,1.414,0   l0.564-0.564L50,28.582L22.729,55.729z M80.293,51.293L50.707,21.707c-0.392-0.391-1.023-0.391-1.414,0L19.707,51.293   c-0.391,0.391-0.391,1.023,0,1.414l2.314,2.314L50,27.168l27.979,27.854l2.314-2.313C80.684,52.316,80.684,51.684,80.293,51.293z    M47.5,67c-0.28,0-0.5,0.221-0.5,0.5v2c0,0.279,0.22,0.5,0.5,0.5s0.5-0.221,0.5-0.5v-2C48,67.221,47.78,67,47.5,67z M50,33l23,23   v23H50V58H36v21h-9V56L50,33z M62,63h5v-5h-5V63z M62,69h5v-5h-5V69z M56,63h5v-5h-5V63z M56,69h5v-5h-5V69z"/></g><text x="0" y="115" fill="#000000" font-size="5px" font-weight="bold" font-family="'Helvetica Neue', Helvetica, Arial-Unicode, Arial, Sans-serif">Created by Setyo Ari Wibowo</text><text x="0" y="120" fill="#000000" font-size="5px" font-weight="bold" font-family="'Helvetica Neue', Helvetica, Arial-Unicode, Arial, Sans-serif">from the Noun Project</text></svg>